<?xml version="1.0" encoding="UTF-8"?>
<svg xmlns="http://www.w3.org/2000/svg" xmlns:xlink="http://www.w3.org/1999/xlink" viewBox="0 0 470.25 9.9">
  <defs>
    <style>
      .cls-1 {
        fill: url(#radial-gradient-2);
        mix-blend-mode: color-dodge;
      }

      .cls-2 {
        fill: url(#radial-gradient-6);
      }

      .cls-2, .cls-3, .cls-4, .cls-5, .cls-6, .cls-7, .cls-8 {
        mix-blend-mode: screen;
      }

      .cls-3 {
        fill: url(#radial-gradient-5);
      }

      .cls-9 {
        fill: url(#radial-gradient);
      }

      .cls-10 {
        isolation: isolate;
      }

      .cls-4 {
        fill: url(#radial-gradient-3);
      }

      .cls-6 {
        fill: url(#radial-gradient-4);
      }

      .cls-7 {
        fill: url(#radial-gradient-7);
      }

      .cls-8 {
        fill: url(#radial-gradient-8);
      }
    </style>
    <radialGradient id="radial-gradient" cx="-7186.61" cy="-14423.37" fx="-7186.61" fy="-14423.37" r="18.54" gradientTransform="translate(91398.13 -1773.55) scale(12.69 -.12)" gradientUnits="userSpaceOnUse">
      <stop offset="0" stop-color="#fff"/>
      <stop offset=".05" stop-color="#f7f7f7"/>
      <stop offset=".13" stop-color="#e1e1e1"/>
      <stop offset=".22" stop-color="#bebebe"/>
      <stop offset=".26" stop-color="#adadad"/>
      <stop offset=".31" stop-color="#adadad"/>
      <stop offset=".33" stop-color="#a1a1a1"/>
      <stop offset=".41" stop-color="#767676"/>
      <stop offset=".49" stop-color="#525252"/>
      <stop offset=".57" stop-color="#343434"/>
      <stop offset=".66" stop-color="#1d1d1d"/>
      <stop offset=".76" stop-color="#0c0c0c"/>
      <stop offset=".86" stop-color="#030303"/>
      <stop offset="1" stop-color="#000"/>
    </radialGradient>
    <radialGradient id="radial-gradient-2" cx="-7186.61" cy="-14423.37" fx="-7186.61" fy="-14423.37" r="9.38" xlink:href="#radial-gradient"/>
    <radialGradient id="radial-gradient-3" cx="-8027.93" cy="-9536.94" fx="-8027.93" fy="-9536.94" r="8.37" gradientTransform="translate(64441.8 -5640.62) scale(7.99 -.59)" xlink:href="#radial-gradient"/>
    <radialGradient id="radial-gradient-4" cx="-8027.93" cy="-10289.19" fx="-8027.93" fy="-10289.19" r="8.37" gradientTransform="translate(64441.79 -3837.78) scale(7.99 -.37)" xlink:href="#radial-gradient"/>
    <radialGradient id="radial-gradient-5" cx="-7186.61" cy="-14423.37" fx="-7186.61" fy="-14423.37" r="18.54" gradientTransform="translate(91398.13 -1773.55) scale(12.69 -.12)" gradientUnits="userSpaceOnUse">
      <stop offset="0" stop-color="#fff"/>
      <stop offset=".04" stop-color="#f7f7f7"/>
      <stop offset=".09" stop-color="#e1e1e1"/>
      <stop offset=".15" stop-color="#bebebe"/>
      <stop offset=".18" stop-color="#adadad"/>
      <stop offset=".23" stop-color="#adadad"/>
      <stop offset=".25" stop-color="#a1a1a1"/>
      <stop offset=".33" stop-color="#767676"/>
      <stop offset=".43" stop-color="#525252"/>
      <stop offset=".52" stop-color="#343434"/>
      <stop offset=".62" stop-color="#1d1d1d"/>
      <stop offset=".73" stop-color="#0c0c0c"/>
      <stop offset=".84" stop-color="#030303"/>
      <stop offset="1" stop-color="#000"/>
    </radialGradient>
    <radialGradient id="radial-gradient-6" cx="-7181.88" cy="-14423.37" fx="-7181.88" fy="-14423.37" r="9.38" gradientTransform="translate(91398.13 -1773.55) scale(12.69 -.12)" gradientUnits="userSpaceOnUse">
      <stop offset="0" stop-color="#adadad"/>
      <stop offset=".11" stop-color="#adadad"/>
      <stop offset=".15" stop-color="#9e9e9e"/>
      <stop offset=".2" stop-color="#939393"/>
      <stop offset=".27" stop-color="#767676"/>
      <stop offset=".36" stop-color="#515151"/>
      <stop offset=".47" stop-color="#343434"/>
      <stop offset=".58" stop-color="#1d1d1d"/>
      <stop offset=".7" stop-color="#0c0c0c"/>
      <stop offset=".83" stop-color="#030303"/>
      <stop offset="1" stop-color="#000"/>
    </radialGradient>
    <radialGradient id="radial-gradient-7" cx="-8027.93" cy="-9536.94" fx="-8027.93" fy="-9536.94" r="8.37" gradientTransform="translate(64441.8 -5640.62) scale(7.99 -.59)" xlink:href="#radial-gradient"/>
    <radialGradient id="radial-gradient-8" cx="-8027.93" cy="-10289.19" fx="-8027.93" fy="-10289.19" r="8.37" gradientTransform="translate(64441.79 -3837.78) scale(7.99 -.37)" xlink:href="#radial-gradient"/>
  </defs>
  <g class="cls-10">
    <g id="Layer_2" data-name="Layer 2">
      <g id="Design">
        <g>
          <g class="cls-5">
            <path class="cls-9" d="M470.25,4.95c0-1.26-105.27-2.29-235.13-2.29C105.27,2.67,0,3.69,0,4.95s105.27,2.29,235.13,2.29c129.85,0,235.13-1.02,235.13-2.29Z"/>
            <path class="cls-1" d="M354.17,4.95c0-.64-53.3-1.16-119.04-1.16-65.74,0-119.03.52-119.03,1.16s53.29,1.16,119.03,1.16c65.74,0,119.04-.52,119.04-1.16Z"/>
          </g>
          <path class="cls-4" d="M361.97,4.95c0-2.74-29.93-4.95-66.84-4.95s-66.84,2.22-66.84,4.95c0,2.74,29.93,4.95,66.84,4.95s66.84-2.22,66.84-4.95Z"/>
          <path class="cls-6" d="M361.97,4.95c0-1.73-29.93-3.12-66.84-3.12s-66.84,1.4-66.84,3.12,29.93,3.12,66.84,3.12,66.84-1.4,66.84-3.12Z"/>
          <path class="cls-3" d="M470.25,4.95c0-1.26-105.27-2.29-235.13-2.29C105.27,2.67,0,3.69,0,4.95s105.27,2.29,235.13,2.29c129.85,0,235.13-1.02,235.13-2.29Z"/>
          <path class="cls-2" d="M414.17,4.95c0-.64-53.3-1.16-119.04-1.16-65.74,0-119.03.52-119.03,1.16s53.29,1.16,119.03,1.16c65.74,0,119.04-.52,119.04-1.16Z"/>
          <path class="cls-7" d="M361.97,4.95c0-2.74-29.93-4.95-66.84-4.95s-66.84,2.22-66.84,4.95c0,2.74,29.93,4.95,66.84,4.95s66.84-2.22,66.84-4.95Z"/>
          <path class="cls-8" d="M361.97,4.95c0-1.73-29.93-3.12-66.84-3.12s-66.84,1.4-66.84,3.12,29.93,3.12,66.84,3.12,66.84-1.4,66.84-3.12Z"/>
        </g>
      </g>
    </g>
  </g>
</svg>