<?xml version="1.0" encoding="UTF-8"?>
<svg xmlns="http://www.w3.org/2000/svg" xmlns:xlink="http://www.w3.org/1999/xlink" viewBox="0 0 24.91 470.25">
  <defs>
    <style>
      .cls-1 {
        fill: url(#radial-gradient-2);
        mix-blend-mode: color-dodge;
      }

      .cls-2 {
        fill: url(#radial-gradient-6);
      }

      .cls-2, .cls-3, .cls-4, .cls-5, .cls-6, .cls-7, .cls-8 {
        mix-blend-mode: screen;
      }

      .cls-3 {
        fill: url(#radial-gradient-5);
      }

      .cls-9 {
        fill: url(#radial-gradient);
      }

      .cls-10 {
        isolation: isolate;
      }

      .cls-4 {
        fill: url(#radial-gradient-3);
      }

      .cls-6 {
        fill: url(#radial-gradient-4);
      }

      .cls-7 {
        fill: url(#radial-gradient-7);
      }

      .cls-8 {
        fill: url(#radial-gradient-8);
      }
    </style>
    <radialGradient id="radial-gradient" cx="-8420.65" cy="-28807.07" fx="-8420.65" fy="-28807.07" r="18.54" gradientTransform="translate(-8921.66 107052.07) rotate(90) scale(12.69 .31)" gradientUnits="userSpaceOnUse">
      <stop offset="0" stop-color="#fff"/>
      <stop offset=".05" stop-color="#f7f7f7"/>
      <stop offset=".13" stop-color="#e1e1e1"/>
      <stop offset=".22" stop-color="#bebebe"/>
      <stop offset=".26" stop-color="#adadad"/>
      <stop offset=".31" stop-color="#adadad"/>
      <stop offset=".33" stop-color="#a1a1a1"/>
      <stop offset=".41" stop-color="#767676"/>
      <stop offset=".49" stop-color="#525252"/>
      <stop offset=".57" stop-color="#343434"/>
      <stop offset=".66" stop-color="#1d1d1d"/>
      <stop offset=".76" stop-color="#0c0c0c"/>
      <stop offset=".86" stop-color="#030303"/>
      <stop offset="1" stop-color="#000"/>
    </radialGradient>
    <radialGradient id="radial-gradient-2" cx="-8420.65" cy="-28807.08" fx="-8420.65" fy="-28807.08" r="9.38" xlink:href="#radial-gradient"/>
    <radialGradient id="radial-gradient-3" cx="-9538.56" cy="-12164.67" fx="-9538.56" fy="-12164.67" r="8.37" gradientTransform="translate(-18099.43 76512.37) rotate(90) scale(7.99 1.49)" xlink:href="#radial-gradient"/>
    <radialGradient id="radial-gradient-4" cx="-9538.56" cy="-14726.48" fx="-9538.56" fy="-14726.48" r="8.37" gradientTransform="translate(-13820.74 76512.37) rotate(90) scale(7.99 .94)" xlink:href="#radial-gradient"/>
    <radialGradient id="radial-gradient-5" cx="-8420.65" cy="-28807.07" fx="-8420.65" fy="-28807.07" r="18.54" gradientTransform="translate(-8921.66 107052.07) rotate(90) scale(12.69 .31)" gradientUnits="userSpaceOnUse">
      <stop offset="0" stop-color="#fff"/>
      <stop offset=".04" stop-color="#f7f7f7"/>
      <stop offset=".09" stop-color="#e1e1e1"/>
      <stop offset=".15" stop-color="#bebebe"/>
      <stop offset=".18" stop-color="#adadad"/>
      <stop offset=".23" stop-color="#adadad"/>
      <stop offset=".25" stop-color="#a1a1a1"/>
      <stop offset=".33" stop-color="#767676"/>
      <stop offset=".43" stop-color="#525252"/>
      <stop offset=".52" stop-color="#343434"/>
      <stop offset=".62" stop-color="#1d1d1d"/>
      <stop offset=".73" stop-color="#0c0c0c"/>
      <stop offset=".84" stop-color="#030303"/>
      <stop offset="1" stop-color="#000"/>
    </radialGradient>
    <radialGradient id="radial-gradient-6" cx="-8415.92" cy="-28807.08" fx="-8415.92" fy="-28807.08" r="9.38" gradientTransform="translate(-8921.66 107052.07) rotate(90) scale(12.69 .31)" gradientUnits="userSpaceOnUse">
      <stop offset="0" stop-color="#adadad"/>
      <stop offset=".11" stop-color="#adadad"/>
      <stop offset=".15" stop-color="#9e9e9e"/>
      <stop offset=".2" stop-color="#939393"/>
      <stop offset=".27" stop-color="#767676"/>
      <stop offset=".36" stop-color="#515151"/>
      <stop offset=".47" stop-color="#343434"/>
      <stop offset=".58" stop-color="#1d1d1d"/>
      <stop offset=".7" stop-color="#0c0c0c"/>
      <stop offset=".83" stop-color="#030303"/>
      <stop offset="1" stop-color="#000"/>
    </radialGradient>
    <radialGradient id="radial-gradient-7" cx="-9538.56" cy="-12164.67" fx="-9538.56" fy="-12164.67" r="8.37" gradientTransform="translate(-18099.43 76512.37) rotate(90) scale(7.99 1.49)" xlink:href="#radial-gradient"/>
    <radialGradient id="radial-gradient-8" cx="-9538.56" cy="-14726.48" fx="-9538.56" fy="-14726.48" r="8.37" gradientTransform="translate(-13820.74 76512.37) rotate(90) scale(7.99 .94)" xlink:href="#radial-gradient"/>
  </defs>
  <g class="cls-10">
    <g id="Layer_2" data-name="Layer 2">
      <g id="Design">
        <g>
          <g class="cls-5">
            <path class="cls-9" d="M12.46,470.25c-3.18,0-5.75-105.27-5.75-235.13S9.28,0,12.46,0s5.75,105.27,5.75,235.13-2.57,235.13-5.75,235.13Z"/>
            <path class="cls-1" d="M12.46,354.17c-1.61,0-2.91-53.3-2.91-119.04s1.3-119.03,2.91-119.03,2.91,53.29,2.91,119.03-1.3,119.04-2.91,119.04Z"/>
          </g>
          <path class="cls-4" d="M12.46,361.97c-6.88,0-12.46-29.93-12.46-66.84s5.58-66.84,12.46-66.84,12.46,29.93,12.46,66.84-5.58,66.84-12.46,66.84Z"/>
          <path class="cls-6" d="M12.46,361.97c-4.34,0-7.86-29.93-7.86-66.84s3.52-66.84,7.86-66.84,7.86,29.93,7.86,66.84-3.52,66.84-7.86,66.84Z"/>
          <path class="cls-3" d="M12.46,470.25c-3.18,0-5.75-105.27-5.75-235.13S9.28,0,12.46,0s5.75,105.27,5.75,235.13-2.57,235.13-5.75,235.13Z"/>
          <path class="cls-2" d="M12.46,414.17c-1.61,0-2.91-53.3-2.91-119.04s1.3-119.03,2.91-119.03,2.91,53.29,2.91,119.03-1.3,119.04-2.91,119.04Z"/>
          <path class="cls-7" d="M12.46,361.97c-6.88,0-12.46-29.93-12.46-66.84s5.58-66.84,12.46-66.84,12.46,29.93,12.46,66.84-5.58,66.84-12.46,66.84Z"/>
          <path class="cls-8" d="M12.46,361.97c-4.34,0-7.86-29.93-7.86-66.84s3.52-66.84,7.86-66.84,7.86,29.93,7.86,66.84-3.52,66.84-7.86,66.84Z"/>
        </g>
      </g>
    </g>
  </g>
</svg>